<?xml version="1.0" encoding="utf-8"?>
<svg width="41px" height="57px" viewBox="0 0 41 57" version="1.1" xmlns:xlink="http://www.w3.org/1999/xlink" xmlns="http://www.w3.org/2000/svg">
  <g id="scroll" transform="translate(1 1)">
    <path d="M0 0L0 52" transform="translate(36.5 1)" id="Arrow" fill="none" stroke="#151515" stroke-width="2" />
    <g id="scroll" transform="matrix(-4.371139E-08 1 -1 -4.371139E-08 32 -3.814697E-06)">
      <path d="M35.6572 18.3018L34.2158 18.3018L34.2158 4.97754L35.6572 4.97754L35.6572 18.3018ZM38.5752 18.3018L40.0166 18.3018L40.0166 4.97754L38.5752 4.97754L38.5752 18.3018ZM0.914063 16.4297L0.914063 17.9766Q1.93359 18.5127 3.32227 18.5127Q4.02539 18.5127 4.66699 18.3545Q5.30859 18.1963 5.80078 17.8711Q6.29297 17.5459 6.5874 17.0537Q6.88183 16.5615 6.88184 15.8936Q6.88184 15.3486 6.70166 14.9531Q6.52148 14.5576 6.1875 14.2544Q5.85352 13.9512 5.37891 13.7095Q4.9043 13.4678 4.30664 13.2393Q3.8584 13.0635 3.50684 12.9141Q3.15527 12.7646 2.90918 12.5801Q2.66309 12.3955 2.53564 12.1582Q2.4082 11.9209 2.4082 11.5693Q2.4082 11.2881 2.53564 11.0552Q2.66309 10.8223 2.896 10.6553Q3.12891 10.4883 3.4541 10.396Q3.7793 10.3037 4.18359 10.3037Q5.47559 10.3037 6.46875 10.9541L6.46875 9.49512Q5.5459 9.09082 4.37695 9.09082Q3.71777 9.09082 3.09814 9.25781Q2.47852 9.4248 1.99512 9.75439Q1.51172 10.084 1.22168 10.5718Q0.931641 11.0596 0.931641 11.6924Q0.931641 12.2109 1.08545 12.5977Q1.23926 12.9844 1.54248 13.2876Q1.8457 13.5908 2.29834 13.8325Q2.75098 14.0742 3.34863 14.3115Q3.7793 14.4785 4.15283 14.6323Q4.52637 14.7861 4.80322 14.9795Q5.08008 15.1729 5.24268 15.4233Q5.40527 15.6738 5.40527 16.0342Q5.40527 17.2998 3.50684 17.2998Q2.0918 17.2998 0.914063 16.4297ZM12.7705 18.5127Q14.1943 18.5127 15.2314 17.8887L15.2314 16.5176Q14.1943 17.2998 13.0166 17.2998Q11.6191 17.2998 10.7886 16.3857Q9.95801 15.4717 9.95801 13.8896Q9.95801 12.2813 10.8413 11.2925Q11.7246 10.3037 13.1045 10.3037Q14.2471 10.3037 15.249 11.0068L15.249 9.53027Q14.3438 9.09082 13.1572 9.09082Q11.0303 9.09082 9.75586 10.4399Q8.48145 11.7891 8.48145 14.0127Q8.48145 16.0078 9.66357 17.2603Q10.8457 18.5127 12.7705 18.5127ZM24.2446 17.2515Q25.4355 18.5127 27.4307 18.5127Q29.4785 18.5127 30.6958 17.2163Q31.9131 15.9199 31.9131 13.7666Q31.9131 11.5693 30.7837 10.3301Q29.6543 9.09082 27.6416 9.09082Q25.5322 9.09082 24.293 10.3652Q23.0537 11.6396 23.0537 13.9072Q23.0537 15.9902 24.2446 17.2515ZM22.1045 10.7607Q21.7266 10.4707 21.0146 10.4707Q20.0918 10.4707 19.4722 11.3408Q18.8525 12.2109 18.8525 13.7139L18.8525 18.3018L17.4111 18.3018L17.4111 9.30176L18.8525 9.30176L18.8525 11.1563L18.8877 11.1563Q19.1953 10.207 19.8281 9.67529Q20.4609 9.14355 21.2432 9.14355Q21.8057 9.14355 22.1045 9.2666L22.1045 10.7607ZM25.3389 11.2485Q26.1475 10.3037 27.5361 10.3037Q28.9336 10.3037 29.6851 11.2178Q30.4365 12.1318 30.4365 13.8193Q30.4365 15.4893 29.6851 16.3945Q28.9336 17.2998 27.5361 17.2998Q26.165 17.2998 25.3477 16.377Q24.5303 15.4541 24.5303 13.8545Q24.5303 12.1934 25.3389 11.2485Z" />
    </g>
  </g>
</svg>